<?xml version="1.0" encoding="UTF-8"?>
<svg id="_세로_통합" data-name="세로_통합" xmlns="http://www.w3.org/2000/svg" viewBox="0 0 1000 1000">
  <defs>
    <style>
      .cls-1 {
        fill: #509def;
      }

      .cls-2 {
        fill: #191970;
      }

      .cls-3 {
        fill: #c6e0ff;
      }
    </style>
  </defs>
  <g>
    <path d="M140.71,640.14h55.58c11.07,0,20.56,2.09,28.45,6.25,7.9,4.17,13.86,9.96,17.89,17.38,4.03,7.42,6.05,15.94,6.05,25.58s-2.05,18.03-6.15,25.38c-4.1,7.35-10.1,13.12-18,17.33s-17.45,6.31-28.66,6.31h-36.91v-22.05h33.32c6.56,0,12.01-1.14,16.35-3.44,4.34-2.29,7.55-5.45,9.64-9.48,2.08-4.03,3.13-8.72,3.13-14.05s-1.04-10.2-3.13-14.2c-2.09-4-5.32-7.11-9.69-9.33-4.38-2.22-9.84-3.33-16.41-3.33h-24.81v126.12h-26.66v-148.48Z"/>
    <path d="M296.29,788.62h-26.04v-148.48h26.04v148.48Z"/>
    <path d="M373.11,740.22l-10.36.82c-6.43.55-11.42,2.15-14.97,4.82-3.56,2.67-5.33,6.39-5.33,11.18,0,3.08.78,5.69,2.36,7.84,1.57,2.15,3.81,3.81,6.72,4.97,2.9,1.16,6.17,1.74,9.79,1.74,5.19,0,9.76-1.04,13.69-3.13,3.93-2.08,6.97-4.87,9.13-8.36s3.23-7.31,3.23-11.48l-.21-35.58c0-3.69-.75-6.83-2.26-9.43-1.5-2.6-3.78-4.55-6.82-5.84-3.04-1.3-6.75-1.95-11.13-1.95-5.61,0-10.2,1.16-13.79,3.49-3.59,2.32-5.9,5.54-6.92,9.64h-25.43c.75-6.36,3.09-12.05,7.02-17.07,3.93-5.02,9.3-8.95,16.1-11.79,6.8-2.84,14.71-4.26,23.74-4.26,7.93,0,15.28,1.2,22.05,3.59,6.77,2.39,12.37,6.44,16.82,12.15,4.44,5.71,6.66,13.21,6.66,22.51v74.55h-25.02v-15.38h-.82c-1.71,3.35-4.02,6.32-6.92,8.92-2.91,2.6-6.55,4.7-10.92,6.31-4.38,1.61-9.37,2.41-14.97,2.41-7.18,0-13.57-1.3-19.17-3.9-5.61-2.6-10.03-6.42-13.28-11.48-3.25-5.06-4.87-11.11-4.87-18.15,0-11.62,3.86-19.98,11.59-25.07,7.72-5.09,17.7-8.01,29.94-8.77,1.78-.21,8.17-.55,19.17-1.03l10.66-.41.21,17.23c-2.32.07-7.55.38-15.69.92Z"/>
    <path d="M465.11,788.62h-26.04v-111.36h24.92v18.87h1.23c2.73-6.42,6.9-11.42,12.51-14.97,5.6-3.55,12.51-5.33,20.71-5.33,7.72,0,14.44,1.62,20.15,4.87,5.71,3.25,10.12,8.02,13.23,14.3,3.11,6.29,4.67,13.84,4.67,22.66v70.96h-26.04v-66.96c0-4.99-.86-9.24-2.56-12.77-1.71-3.52-4.17-6.24-7.38-8.15-3.21-1.91-7.14-2.87-11.79-2.87s-8.75.99-12.3,2.97c-3.56,1.98-6.32,4.89-8.31,8.72-1.98,3.83-2.97,8.41-2.97,13.74v65.32Z"/>
    <path d="M563.88,640.14h26.66v68.39h1.95l57.93-68.39h32.81l-57.63,66.65,58.14,81.83h-32.3l-44.4-63.78-16.51,19.58v44.19h-26.66v-148.48Z"/>
    <path d="M727.87,788.62h-26.66v-148.48h26.66v148.48Z"/>
    <path d="M749.94,640.14h118.43v22.46h-45.83v126.02h-26.56v-126.02h-46.04v-22.46Z"/>
  </g>
  <g>
    <path id="_문서" data-name="문서" class="cls-1" d="M591.76,202h-131.88l-106.29,103.91v224.8c0,16.31,13.22,29.52,29.52,29.52h208.64c16.31,0,29.52-13.22,29.52-29.52V231.52c0-16.31-13.22-29.52-29.52-29.52Z"/>
    <path id="_귀퉁이" data-name="귀퉁이" class="cls-3" d="M430.36,305.91c16.31,0,29.52-13.22,29.52-29.52v-74.38s-106.29,103.91-106.29,103.91h76.76Z"/>
    <path id="_펜" data-name="펜" class="cls-2" d="M635.63,266.58l-89.26,154.6c-2.27,3.94-3.71,8.29-4.2,12.75l-6.17,39.18c-.91,5.79,5.25,9.36,9.82,5.68l32.52-26.2c2.5-1.84,4.61-4.21,6.19-6.93l90.32-156.44c5.83-10.1,3.04-22.64-6.24-28l-5.6-3.23c-9.28-5.36-21.53-1.51-27.36,8.59Z"/>
  </g>
</svg>