<?xml version="1.0" encoding="UTF-8"?>
<svg id="_가로통합_-_텍스트" data-name="가로통합 - 텍스트" xmlns="http://www.w3.org/2000/svg" viewBox="0 0 1000 1000">
  <g>
    <path d="M335.11,443.31h39.7c7.91,0,14.68,1.49,20.32,4.47,5.64,2.98,9.9,7.12,12.78,12.41,2.88,5.3,4.32,11.39,4.32,18.27s-1.46,12.88-4.39,18.13c-2.93,5.25-7.21,9.38-12.85,12.38s-12.46,4.5-20.47,4.5h-26.37v-15.75h23.8c4.69,0,8.58-.82,11.68-2.45,3.1-1.63,5.39-3.89,6.88-6.77,1.49-2.88,2.23-6.23,2.23-10.03s-.75-7.29-2.23-10.14c-1.49-2.86-3.8-5.08-6.92-6.67-3.13-1.59-7.03-2.38-11.72-2.38h-17.72v90.09h-19.04v-106.05Z"/>
    <path d="M446.24,549.37h-18.6v-106.05h18.6v106.05Z"/>
    <path d="M501.12,514.79l-7.4.59c-4.59.39-8.16,1.54-10.69,3.44-2.54,1.9-3.81,4.57-3.81,7.98,0,2.2.56,4.06,1.68,5.6,1.12,1.54,2.72,2.72,4.8,3.55,2.08.83,4.41,1.25,7,1.25,3.71,0,6.97-.74,9.78-2.23,2.81-1.49,4.98-3.48,6.52-5.97s2.31-5.22,2.31-8.2l-.15-25.42c0-2.64-.54-4.88-1.61-6.74-1.08-1.86-2.7-3.25-4.87-4.17-2.17-.93-4.82-1.39-7.95-1.39-4,0-7.29.83-9.85,2.49-2.56,1.66-4.21,3.96-4.94,6.88h-18.16c.54-4.54,2.21-8.61,5.02-12.2,2.81-3.59,6.64-6.4,11.5-8.42,4.86-2.03,10.51-3.04,16.96-3.04,5.66,0,10.91.85,15.75,2.56,4.83,1.71,8.84,4.6,12.01,8.68,3.17,4.08,4.76,9.44,4.76,16.08v53.25h-17.87v-10.99h-.59c-1.22,2.39-2.87,4.52-4.94,6.37-2.08,1.86-4.68,3.36-7.8,4.5-3.13,1.15-6.69,1.72-10.69,1.72-5.13,0-9.69-.93-13.7-2.78-4-1.86-7.17-4.59-9.49-8.2-2.32-3.61-3.48-7.93-3.48-12.96,0-8.3,2.76-14.27,8.28-17.91,5.52-3.64,12.65-5.72,21.39-6.26,1.27-.15,5.83-.39,13.7-.73l7.62-.29.15,12.3c-1.66.05-5.4.27-11.21.66Z"/>
    <path d="M566.83,549.37h-18.6v-79.54h17.8v13.48h.88c1.95-4.59,4.93-8.15,8.94-10.69,4-2.54,8.94-3.81,14.79-3.81,5.52,0,10.31,1.16,14.39,3.48,4.08,2.32,7.23,5.73,9.45,10.22,2.22,4.49,3.33,9.89,3.33,16.19v50.68h-18.6v-47.83c0-3.56-.61-6.6-1.83-9.12-1.22-2.51-2.98-4.46-5.27-5.82-2.3-1.37-5.1-2.05-8.42-2.05s-6.25.71-8.79,2.12c-2.54,1.42-4.52,3.49-5.93,6.23-1.42,2.74-2.12,6.01-2.12,9.81v46.66Z"/>
    <path d="M637.38,443.31h19.04v48.85h1.39l41.38-48.85h23.44l-41.16,47.61,41.53,58.45h-23.07l-31.71-45.56-11.79,13.99v31.57h-19.04v-106.05Z"/>
    <path d="M754.51,549.37h-19.04v-106.05h19.04v106.05Z"/>
    <path d="M770.28,443.31h84.59v16.04h-32.74v90.01h-18.97v-90.01h-32.89v-16.04Z"/>
  </g>
  <g>
    <path id="_문서" data-name="문서" d="M261,409h-67l-54,52.79v114.21c0,8.28,6.72,15,15,15h106c8.28,0,15-6.72,15-15v-152c0-8.28-6.72-15-15-15Z" fill="#509def"/>
    <path id="_귀퉁이" data-name="귀퉁이" d="M179,461.79c8.28,0,15-6.72,15-15v-37.79s-54,52.79-54,52.79h39Z" fill="#c6e0ff"/>
    <path id="_펜" data-name="펜" d="M283.29,441.81l-45.35,78.55c-1.16,2-1.89,4.21-2.14,6.48l-3.14,19.9c-.46,2.94,2.67,4.75,4.99,2.89l16.52-13.31c1.27-.93,2.34-2.14,3.14-3.52l45.89-79.48c2.96-5.13,1.54-11.5-3.17-14.22l-2.85-1.64c-4.71-2.72-10.94-.77-13.9,4.37Z" fill="#191970"/>
  </g>
</svg>