<svg width="48" height="49" viewBox="0 0 48 49" fill="none" xmlns="http://www.w3.org/2000/svg">
<path d="M8 42.9688C6.9 42.9688 5.95867 42.5774 5.176 41.7948C4.39333 41.0121 4.00133 40.0701 4 38.9688V10.9688C4 9.86875 4.392 8.92742 5.176 8.14475C5.96 7.36208 6.90133 6.97008 8 6.96875H40C41.1 6.96875 42.042 7.36075 42.826 8.14475C43.61 8.92875 44.0013 9.87008 44 10.9688V38.9688C44 40.0687 43.6087 41.0107 42.826 41.7948C42.0433 42.5788 41.1013 42.9701 40 42.9688H8ZM8 38.9688H40V10.9688H8V38.9688ZM18 34.9688C18.5667 34.9688 19.042 34.7768 19.426 34.3927C19.81 34.0087 20.0013 33.5341 20 32.9688C19.9987 32.4034 19.8067 31.9288 19.424 31.5448C19.0413 31.1607 18.5667 30.9688 18 30.9688H12C11.4333 30.9688 10.9587 31.1607 10.576 31.5448C10.1933 31.9288 10.0013 32.4034 10 32.9688C9.99867 33.5341 10.1907 34.0094 10.576 34.3947C10.9613 34.7801 11.436 34.9714 12 34.9688H18ZM29.1 25.3188L27.65 23.8687C27.25 23.4688 26.7833 23.2774 26.25 23.2948C25.7167 23.3121 25.25 23.5201 24.85 23.9188C24.4833 24.3188 24.2913 24.7854 24.274 25.3188C24.2567 25.8521 24.4487 26.3188 24.85 26.7188L27.7 29.5688C28.1 29.9688 28.5667 30.1688 29.1 30.1688C29.6333 30.1688 30.1 29.9688 30.5 29.5688L37.6 22.4688C38 22.0688 38.2 21.6021 38.2 21.0688C38.2 20.5354 38 20.0688 37.6 19.6688C37.2 19.2688 36.7253 19.0688 36.176 19.0688C35.6267 19.0688 35.1513 19.2688 34.75 19.6688L29.1 25.3188ZM18 26.9688C18.5667 26.9688 19.042 26.7768 19.426 26.3927C19.81 26.0087 20.0013 25.5341 20 24.9688C19.9987 24.4034 19.8067 23.9288 19.424 23.5448C19.0413 23.1607 18.5667 22.9688 18 22.9688H12C11.4333 22.9688 10.9587 23.1607 10.576 23.5448C10.1933 23.9288 10.0013 24.4034 10 24.9688C9.99867 25.5341 10.1907 26.0094 10.576 26.3948C10.9613 26.7801 11.436 26.9714 12 26.9688H18ZM18 18.9688C18.5667 18.9688 19.042 18.7767 19.426 18.3927C19.81 18.0087 20.0013 17.5341 20 16.9688C19.9987 16.4034 19.8067 15.9288 19.424 15.5448C19.0413 15.1608 18.5667 14.9688 18 14.9688H12C11.4333 14.9688 10.9587 15.1608 10.576 15.5448C10.1933 15.9288 10.0013 16.4034 10 16.9688C9.99867 17.5341 10.1907 18.0094 10.576 18.3948C10.9613 18.7801 11.436 18.9714 12 18.9688H18Z" fill="white"/>
</svg>
