<svg width="48" height="49" viewBox="0 0 48 49" fill="none" xmlns="http://www.w3.org/2000/svg">
<path d="M40 24.5C39.4667 24.5 38.992 24.308 38.576 23.924C38.16 23.54 37.918 23.0653 37.85 22.5C37.4167 19.4 36.108 16.758 33.924 14.574C31.74 12.39 29.0987 11.0827 26 10.652C25.4333 10.5853 24.9587 10.352 24.576 9.952C24.1933 9.552 24.0013 9.068 24 8.5C23.9987 7.932 24.1987 7.45733 24.6 7.076C25.0013 6.69467 25.468 6.536 26 6.6C30.2 7.06667 33.7833 8.78333 36.75 11.75C39.7167 14.7167 41.4333 18.3 41.9 22.5C41.9667 23.0333 41.808 23.5 41.424 23.9C41.04 24.3 40.5653 24.5 40 24.5ZM31.65 24.5C31.2167 24.5 30.8333 24.35 30.5 24.05C30.1667 23.75 29.9167 23.35 29.75 22.85C29.4833 21.8833 28.9747 21.0253 28.224 20.276C27.4733 19.5267 26.6153 19.018 25.65 18.75C25.15 18.5833 24.75 18.3333 24.45 18C24.15 17.6667 24 17.2667 24 16.8C24 16.1333 24.2333 15.592 24.7 15.176C25.1667 14.76 25.6833 14.618 26.25 14.75C28.1167 15.1833 29.7253 16.0753 31.076 17.426C32.4267 18.7767 33.318 20.3847 33.75 22.25C33.8833 22.8167 33.7333 23.3333 33.3 23.8C32.8667 24.2667 32.3167 24.5 31.65 24.5ZM39.9 42.5C35.7333 42.5 31.6167 41.592 27.55 39.776C23.4833 37.96 19.7833 35.3847 16.45 32.05C13.1167 28.7153 10.542 25.0153 8.726 20.95C6.91 16.8847 6.00133 12.768 6 8.6C6 8 6.2 7.5 6.6 7.1C7 6.7 7.5 6.5 8.1 6.5H16.2C16.6667 6.5 17.0833 6.65867 17.45 6.976C17.8167 7.29333 18.0333 7.668 18.1 8.1L19.4 15.1C19.4667 15.6333 19.45 16.0833 19.35 16.45C19.25 16.8167 19.0667 17.1333 18.8 17.4L13.95 22.3C14.6167 23.5333 15.408 24.7247 16.324 25.874C17.24 27.0233 18.2487 28.132 19.35 29.2C20.3833 30.2333 21.4667 31.192 22.6 32.076C23.7333 32.96 24.9333 33.768 26.2 34.5L30.9 29.8C31.2 29.5 31.592 29.2753 32.076 29.126C32.56 28.9767 33.0347 28.9347 33.5 29L40.4 30.4C40.8667 30.5333 41.25 30.7753 41.55 31.126C41.85 31.4767 42 31.868 42 32.3V40.4C42 41 41.8 41.5 41.4 41.9C41 42.3 40.5 42.5 39.9 42.5ZM12.05 18.5L15.35 15.2L14.5 10.5H10.05C10.2167 11.8667 10.45 13.2167 10.75 14.55C11.05 15.8833 11.4833 17.2 12.05 18.5ZM29.95 36.4C31.25 36.9667 32.5753 37.4167 33.926 37.75C35.2767 38.0833 36.6347 38.3 38 38.4V34L33.3 33.05L29.95 36.4Z" fill="#1C1C1C"/>
</svg>
