<svg width="48" height="49" viewBox="0 0 48 49" fill="none" xmlns="http://www.w3.org/2000/svg">
<path d="M8 42.5C6.9 42.5 5.95867 42.1087 5.176 41.326C4.39333 40.5433 4.00133 39.6013 4 38.5V10.5C4 9.4 4.392 8.45867 5.176 7.676C5.96 6.89333 6.90133 6.50133 8 6.5H40C41.1 6.5 42.042 6.892 42.826 7.676C43.61 8.46 44.0013 9.40133 44 10.5V38.5C44 39.6 43.6087 40.542 42.826 41.326C42.0433 42.11 41.1013 42.5013 40 42.5H8ZM8 38.5H40V10.5H8V38.5ZM18 34.5C18.5667 34.5 19.042 34.308 19.426 33.924C19.81 33.54 20.0013 33.0653 20 32.5C19.9987 31.9347 19.8067 31.46 19.424 31.076C19.0413 30.692 18.5667 30.5 18 30.5H12C11.4333 30.5 10.9587 30.692 10.576 31.076C10.1933 31.46 10.0013 31.9347 10 32.5C9.99867 33.0653 10.1907 33.5407 10.576 33.926C10.9613 34.3113 11.436 34.5027 12 34.5H18ZM29.1 24.85L27.65 23.4C27.25 23 26.7833 22.8087 26.25 22.826C25.7167 22.8433 25.25 23.0513 24.85 23.45C24.4833 23.85 24.2913 24.3167 24.274 24.85C24.2567 25.3833 24.4487 25.85 24.85 26.25L27.7 29.1C28.1 29.5 28.5667 29.7 29.1 29.7C29.6333 29.7 30.1 29.5 30.5 29.1L37.6 22C38 21.6 38.2 21.1333 38.2 20.6C38.2 20.0667 38 19.6 37.6 19.2C37.2 18.8 36.7253 18.6 36.176 18.6C35.6267 18.6 35.1513 18.8 34.75 19.2L29.1 24.85ZM18 26.5C18.5667 26.5 19.042 26.308 19.426 25.924C19.81 25.54 20.0013 25.0653 20 24.5C19.9987 23.9347 19.8067 23.46 19.424 23.076C19.0413 22.692 18.5667 22.5 18 22.5H12C11.4333 22.5 10.9587 22.692 10.576 23.076C10.1933 23.46 10.0013 23.9347 10 24.5C9.99867 25.0653 10.1907 25.5407 10.576 25.926C10.9613 26.3113 11.436 26.5027 12 26.5H18ZM18 18.5C18.5667 18.5 19.042 18.308 19.426 17.924C19.81 17.54 20.0013 17.0653 20 16.5C19.9987 15.9347 19.8067 15.46 19.424 15.076C19.0413 14.692 18.5667 14.5 18 14.5H12C11.4333 14.5 10.9587 14.692 10.576 15.076C10.1933 15.46 10.0013 15.9347 10 16.5C9.99867 17.0653 10.1907 17.5407 10.576 17.926C10.9613 18.3113 11.436 18.5027 12 18.5H18Z" fill="#1C1C1C"/>
</svg>
