<svg width="48" height="49" viewBox="0 0 48 49" fill="none" xmlns="http://www.w3.org/2000/svg">
<path d="M45.9016 24.568C45.9016 25.1346 45.7102 25.61 45.3276 25.994C44.9449 26.378 44.4696 26.5693 43.9016 26.568H41.9016C41.8016 27.4346 41.6516 28.26 41.4516 29.044C41.2516 29.828 40.9849 30.6026 40.6516 31.368C40.4516 31.868 40.0849 32.2013 39.5516 32.368C39.0182 32.5346 38.5182 32.4846 38.0516 32.218C37.5849 31.9513 37.2682 31.56 37.1016 31.044C36.9349 30.528 36.9516 30.0026 37.1516 29.468C37.4182 28.7013 37.6269 27.91 37.7776 27.094C37.9282 26.278 38.0029 25.436 38.0016 24.568C38.0016 20.7013 36.6349 17.4013 33.9016 14.668C31.1682 11.9346 27.8682 10.568 24.0016 10.568C23.1349 10.568 22.2929 10.6433 21.4756 10.794C20.6582 10.9446 19.8669 11.1526 19.1016 11.418C18.5682 11.618 18.0429 11.6346 17.5256 11.468C17.0082 11.3013 16.6169 10.9846 16.3516 10.518C16.0862 10.0513 16.0362 9.55131 16.2016 9.01798C16.3669 8.48464 16.7002 8.11798 17.2016 7.91798C17.9682 7.58464 18.7436 7.31798 19.5276 7.11798C20.3116 6.91798 21.1362 6.76798 22.0016 6.66798V4.66798C22.0016 4.10131 22.1936 3.62664 22.5776 3.24398C22.9616 2.86131 23.4362 2.66931 24.0016 2.66798C24.5669 2.66664 25.0422 2.85864 25.4276 3.24398C25.8129 3.62931 26.0042 4.10398 26.0016 4.66798V6.66798C30.1682 7.13464 33.7436 8.85998 36.7276 11.844C39.7116 14.828 41.4362 18.4026 41.9016 22.568H43.9016C44.4682 22.568 44.9436 22.76 45.3276 23.144C45.7116 23.528 45.9029 24.0026 45.9016 24.568ZM22.0016 44.468V42.468C17.8349 42.0013 14.2596 40.276 11.2756 37.292C8.29157 34.308 6.5669 30.7333 6.10157 26.568H4.10157C3.5349 26.568 3.06024 26.376 2.67757 25.992C2.2949 25.608 2.1029 25.1333 2.10157 24.568C2.10024 24.0026 2.29224 23.528 2.67757 23.144C3.0629 22.76 3.53757 22.568 4.10157 22.568H6.10157C6.26824 21.168 6.5849 19.8433 7.05157 18.594C7.51824 17.3446 8.10157 16.136 8.80157 14.968L4.20157 10.368C3.8349 10.0013 3.65157 9.53464 3.65157 8.96798C3.65157 8.40131 3.8349 7.93464 4.20157 7.56798C4.56824 7.20131 5.0349 7.01798 5.60157 7.01798C6.16824 7.01798 6.6349 7.20131 7.00157 7.56798L40.9516 41.518C41.3516 41.918 41.5516 42.3933 41.5516 42.944C41.5516 43.4946 41.3516 43.9693 40.9516 44.368C40.5516 44.7346 40.0769 44.9266 39.5276 44.944C38.9782 44.9613 38.5029 44.7693 38.1016 44.368L33.6016 39.768C32.4349 40.468 31.2269 41.0513 29.9776 41.518C28.7282 41.9846 27.4029 42.3013 26.0016 42.468V44.468C26.0016 45.0346 25.8096 45.51 25.4256 45.894C25.0416 46.278 24.5669 46.4693 24.0016 46.468C23.4362 46.4666 22.9616 46.2746 22.5776 45.892C22.1936 45.5093 22.0016 45.0346 22.0016 44.468ZM24.0016 38.568C25.2016 38.568 26.3682 38.426 27.5016 38.142C28.6349 37.858 29.7016 37.4333 30.7016 36.868L11.7016 17.868C11.1349 18.868 10.7096 19.9346 10.4256 21.068C10.1416 22.2013 10.0002 23.368 10.0016 24.568C10.0016 28.4346 11.3682 31.7346 14.1016 34.468C16.8349 37.2013 20.1349 38.568 24.0016 38.568Z" fill="#1C1C1C"/>
</svg>
