<svg width="48" height="49" viewBox="0 0 48 49" fill="none" xmlns="http://www.w3.org/2000/svg">
<path d="M13.3 16.8C13.5 17 13.7333 17.1 14 17.1C14.2667 17.1 14.5 17 14.7 16.8L17.3 14.2C17.5 14 17.6 13.7667 17.6 13.5C17.6 13.2333 17.5 13 17.3 12.8L14.7 10.2C14.5 10 14.2667 9.9 14 9.9C13.7333 9.9 13.5 10 13.3 10.2L10.7 12.8C10.5 13 10.4 13.2333 10.4 13.5C10.4 13.7667 10.5 14 10.7 14.2L13.3 16.8ZM8 28.5C6.9 28.5 5.95867 28.1087 5.176 27.326C4.39333 26.5433 4.00133 25.6013 4 24.5V6.5C4 5.4 4.392 4.45867 5.176 3.676C5.96 2.89333 6.90133 2.50133 8 2.5H40C41.1 2.5 42.042 2.892 42.826 3.676C43.61 4.46 44.0013 5.40133 44 6.5V24.5C44 25.6 43.6087 26.542 42.826 27.326C42.0433 28.11 41.1013 28.5013 40 28.5H35.95C35.3833 28.5 34.9167 28.308 34.55 27.924C34.1833 27.54 34 27.0653 34 26.5C34 25.9347 34.192 25.46 34.576 25.076C34.96 24.692 35.4347 24.5 36 24.5H40V6.5H8V24.5H12C12.5667 24.5 13.042 24.692 13.426 25.076C13.81 25.46 14.0013 25.9347 14 26.5C13.9987 27.0653 13.8067 27.5407 13.424 27.926C13.0413 28.3113 12.5667 28.5027 12 28.5H8ZM33 14.5C33.8333 14.5 34.542 14.2087 35.126 13.626C35.71 13.0433 36.0013 12.3347 36 11.5C35.9987 10.6653 35.7073 9.95733 35.126 9.376C34.5447 8.79467 33.836 8.50267 33 8.5C32.164 8.49733 31.456 8.78933 30.876 9.376C30.296 9.96267 30.004 10.6707 30 11.5C29.996 12.3293 30.288 13.038 30.876 13.626C31.464 14.214 32.172 14.5053 33 14.5ZM12 46.5C11.4333 46.5 10.9587 46.308 10.576 45.924C10.1933 45.54 10.0013 45.0653 10 44.5V42.3C10 41.1333 10.3253 40.05 10.976 39.05C11.6267 38.05 12.4847 37.3 13.55 36.8C15.1833 36.0333 16.8833 35.4587 18.65 35.076C20.4167 34.6933 22.2 34.5013 24 34.5C25.8 34.4987 27.5833 34.6907 29.35 35.076C31.1167 35.4613 32.8167 36.036 34.45 36.8C35.5167 37.3 36.3753 38.05 37.026 39.05C37.6767 40.05 38.0013 41.1333 38 42.3V44.5C38 45.0667 37.8087 45.542 37.426 45.926C37.0433 46.31 36.568 46.5013 36 46.5H12ZM14 42.5H34V42.3C34 41.9 33.8833 41.5333 33.65 41.2C33.4167 40.8667 33.1167 40.6167 32.75 40.45C31.35 39.8167 29.9167 39.3333 28.45 39C26.9833 38.6667 25.5 38.5 24 38.5C22.5 38.5 21.0167 38.6667 19.55 39C18.0833 39.3333 16.65 39.8167 15.25 40.45C14.8833 40.6167 14.5833 40.8667 14.35 41.2C14.1167 41.5333 14 41.9 14 42.3V42.5ZM24 32.5C22.0667 32.5 20.4167 31.8167 19.05 30.45C17.6833 29.0833 17 27.4333 17 25.5C17 23.5667 17.6833 21.9167 19.05 20.55C20.4167 19.1833 22.0667 18.5 24 18.5C25.9333 18.5 27.5833 19.1833 28.95 20.55C30.3167 21.9167 31 23.5667 31 25.5C31 27.4333 30.3167 29.0833 28.95 30.45C27.5833 31.8167 25.9333 32.5 24 32.5ZM24 28.5C24.8333 28.5 25.542 28.2087 26.126 27.626C26.71 27.0433 27.0013 26.3347 27 25.5C26.9987 24.6653 26.7073 23.9573 26.126 23.376C25.5447 22.7947 24.836 22.5027 24 22.5C23.164 22.4973 22.456 22.7893 21.876 23.376C21.296 23.9627 21.004 24.6707 21 25.5C20.996 26.3293 21.288 27.038 21.876 27.626C22.464 28.214 23.172 28.5053 24 28.5Z" fill="#1C1C1C"/>
</svg>
