<svg width="48" height="49" viewBox="0 0 48 49" fill="none" xmlns="http://www.w3.org/2000/svg">
<path d="M37.25 38.5687L34.4 41.3688C34.0333 41.7354 33.5753 41.9274 33.026 41.9448C32.4767 41.9621 32.0013 41.7701 31.6 41.3688C31.2333 41.0021 31.05 40.5354 31.05 39.9688C31.05 39.4021 31.2333 38.9354 31.6 38.5687L34.4 35.7188L31.6 32.8688C31.2333 32.5021 31.0413 32.0441 31.024 31.4947C31.0067 30.9454 31.1987 30.4701 31.6 30.0688C31.9667 29.7021 32.4333 29.5187 33 29.5187C33.5667 29.5187 34.0333 29.7021 34.4 30.0688L37.25 32.8688L40.1 30.0688C40.4667 29.7021 40.9253 29.5101 41.476 29.4928C42.0267 29.4754 42.5013 29.6674 42.9 30.0688C43.2667 30.4354 43.45 30.9021 43.45 31.4688C43.45 32.0354 43.2667 32.5021 42.9 32.8688L40.1 35.7188L42.9 38.5687C43.2667 38.9354 43.4587 39.3941 43.476 39.9448C43.4933 40.4954 43.3013 40.9701 42.9 41.3688C42.5333 41.7354 42.0667 41.9188 41.5 41.9188C40.9333 41.9188 40.4667 41.7354 40.1 41.3688L37.25 38.5687ZM11.25 43.7188C9.58333 43.7188 8.16667 43.1354 7 41.9688C5.83333 40.8021 5.25 39.3854 5.25 37.7188V35.7188C5.25 34.6187 5.642 33.6774 6.426 32.8947C7.21 32.1121 8.15133 31.7201 9.25 31.7188H11.25V7.71875C11.25 6.61875 11.642 5.67742 12.426 4.89475C13.21 4.11208 14.1513 3.72008 15.25 3.71875H37.25C38.35 3.71875 39.292 4.11075 40.076 4.89475C40.86 5.67875 41.2513 6.62008 41.25 7.71875V23.7188C41.25 24.2854 41.058 24.7607 40.674 25.1448C40.29 25.5288 39.8153 25.7201 39.25 25.7188C38.6847 25.7174 38.21 25.5254 37.826 25.1427C37.442 24.7601 37.25 24.2854 37.25 23.7188V7.71875H15.25V31.7188H25.25C25.8167 31.7188 26.292 31.9107 26.676 32.2948C27.06 32.6788 27.2513 33.1534 27.25 33.7188C27.2487 34.2841 27.0567 34.7594 26.674 35.1447C26.2913 35.5301 25.8167 35.7214 25.25 35.7188H9.25V37.7188C9.25 38.2854 9.442 38.7607 9.826 39.1447C10.21 39.5287 10.6847 39.7201 11.25 39.7188H25.25C25.8167 39.7188 26.292 39.9108 26.676 40.2948C27.06 40.6787 27.2513 41.1534 27.25 41.7188C27.2487 42.2841 27.0567 42.7594 26.674 43.1447C26.2913 43.5301 25.8167 43.7214 25.25 43.7188H11.25ZM19.25 17.7188C18.6833 17.7188 18.2087 17.5267 17.826 17.1427C17.4433 16.7587 17.2513 16.2841 17.25 15.7188C17.2487 15.1534 17.4407 14.6788 17.826 14.2948C18.2113 13.9108 18.686 13.7188 19.25 13.7188H33.25C33.8167 13.7188 34.292 13.9108 34.676 14.2948C35.06 14.6788 35.2513 15.1534 35.25 15.7188C35.2487 16.2841 35.0567 16.7594 34.674 17.1448C34.2913 17.5301 33.8167 17.7214 33.25 17.7188H19.25ZM19.25 23.7188C18.6833 23.7188 18.2087 23.5268 17.826 23.1427C17.4433 22.7587 17.2513 22.2841 17.25 21.7188C17.2487 21.1534 17.4407 20.6788 17.826 20.2948C18.2113 19.9107 18.686 19.7188 19.25 19.7188H33.25C33.8167 19.7188 34.292 19.9107 34.676 20.2948C35.06 20.6788 35.2513 21.1534 35.25 21.7188C35.2487 22.2841 35.0567 22.7594 34.674 23.1448C34.2913 23.5301 33.8167 23.7214 33.25 23.7188H19.25Z" fill="#1C1C1C"/>
</svg>
