<svg width="48" height="49" viewBox="0 0 48 49" fill="none" xmlns="http://www.w3.org/2000/svg">
<path d="M44 12.9688V36.9688C44 38.0688 43.6087 39.0107 42.826 39.7948C42.0433 40.5788 41.1013 40.9701 40 40.9688H8C6.9 40.9688 5.95867 40.5774 5.176 39.7948C4.39333 39.0121 4.00133 38.0701 4 36.9688V12.9688C4 11.8688 4.392 10.9274 5.176 10.1447C5.96 9.36208 6.90133 8.97008 8 8.96875H40C41.1 8.96875 42.042 9.36075 42.826 10.1447C43.61 10.9287 44.0013 11.8701 44 12.9688ZM8 16.9688H40V12.9688H8V16.9688ZM8 24.9688V36.9688H40V24.9688H8Z" fill="white"/>
</svg>
