<svg width="48" height="49" viewBox="0 0 48 49" fill="none" xmlns="http://www.w3.org/2000/svg">
<path d="M27.6102 10.4706L25.6302 6.47864C25.4792 6.17528 25.2465 5.92006 24.9584 5.74166C24.6703 5.56326 24.3381 5.46875 23.9992 5.46875C23.6603 5.46875 23.3282 5.56326 23.0401 5.74166C22.7519 5.92006 22.5193 6.17528 22.3682 6.47864L21.3762 8.47464M30.0202 15.3246L30.8242 16.9426L33.7282 17.3646M39.5382 18.2106L42.4402 18.6306C42.7753 18.6771 43.0905 18.8168 43.35 19.0339C43.6094 19.2509 43.8026 19.5365 43.9075 19.8581C44.0124 20.1797 44.0248 20.5243 43.9432 20.8525C43.8616 21.1808 43.6894 21.4796 43.4462 21.7146L41.3462 23.7486M37.1422 27.8186L35.0422 29.8546L35.5382 32.7286M36.5302 38.4786L37.0262 41.3526C37.2802 42.8306 35.7202 43.9566 34.3862 43.2586L31.7902 41.9006M20.8542 39.4706L23.9982 37.8266L26.5962 39.1846M11.3402 39.2086L10.9702 41.3526C10.7162 42.8306 12.2762 43.9566 13.6102 43.2586L15.3042 42.3726M12.5042 32.4706L12.9542 29.8546L11.5642 28.5086M7.39622 24.4706L4.55022 21.7146C4.30701 21.4796 4.1348 21.1808 4.05323 20.8525C3.97167 20.5243 3.98404 20.1797 4.08894 19.8581C4.19384 19.5365 4.38704 19.2509 4.64649 19.0339C4.90593 18.8168 5.22117 18.6771 5.55622 18.6306L7.77622 18.3086M13.9982 17.4046L17.1722 16.9426L18.7802 13.7066" stroke="#1C1C1C" stroke-width="4" stroke-linecap="round" stroke-linejoin="round"/>
</svg>
