<svg width="48" height="49" viewBox="0 0 48 49" fill="none" xmlns="http://www.w3.org/2000/svg">
<path d="M40 24.9688C39.4667 24.9688 38.992 24.7768 38.576 24.3927C38.16 24.0087 37.918 23.5341 37.85 22.9688C37.4167 19.8687 36.108 17.2268 33.924 15.0428C31.74 12.8588 29.0987 11.5514 26 11.1208C25.4333 11.0541 24.9587 10.8207 24.576 10.4207C24.1933 10.0207 24.0013 9.53675 24 8.96875C23.9987 8.40075 24.1987 7.92608 24.6 7.54475C25.0013 7.16342 25.468 7.00475 26 7.06875C30.2 7.53542 33.7833 9.25208 36.75 12.2188C39.7167 15.1854 41.4333 18.7688 41.9 22.9688C41.9667 23.5021 41.808 23.9688 41.424 24.3687C41.04 24.7687 40.5653 24.9688 40 24.9688ZM31.65 24.9688C31.2167 24.9688 30.8333 24.8187 30.5 24.5187C30.1667 24.2188 29.9167 23.8188 29.75 23.3188C29.4833 22.3521 28.9747 21.4941 28.224 20.7447C27.4733 19.9954 26.6153 19.4867 25.65 19.2188C25.15 19.0521 24.75 18.8021 24.45 18.4688C24.15 18.1354 24 17.7354 24 17.2687C24 16.6021 24.2333 16.0608 24.7 15.6447C25.1667 15.2287 25.6833 15.0868 26.25 15.2188C28.1167 15.6521 29.7253 16.5441 31.076 17.8948C32.4267 19.2454 33.318 20.8534 33.75 22.7188C33.8833 23.2854 33.7333 23.8021 33.3 24.2687C32.8667 24.7354 32.3167 24.9688 31.65 24.9688ZM39.9 42.9688C35.7333 42.9688 31.6167 42.0608 27.55 40.2448C23.4833 38.4288 19.7833 35.8534 16.45 32.5187C13.1167 29.1841 10.542 25.4841 8.726 21.4188C6.91 17.3534 6.00133 13.2368 6 9.06875C6 8.46875 6.2 7.96875 6.6 7.56875C7 7.16875 7.5 6.96875 8.1 6.96875H16.2C16.6667 6.96875 17.0833 7.12742 17.45 7.44475C17.8167 7.76208 18.0333 8.13675 18.1 8.56875L19.4 15.5688C19.4667 16.1021 19.45 16.5521 19.35 16.9187C19.25 17.2854 19.0667 17.6021 18.8 17.8687L13.95 22.7687C14.6167 24.0021 15.408 25.1934 16.324 26.3428C17.24 27.4921 18.2487 28.6007 19.35 29.6688C20.3833 30.7021 21.4667 31.6607 22.6 32.5448C23.7333 33.4288 24.9333 34.2367 26.2 34.9688L30.9 30.2687C31.2 29.9688 31.592 29.7441 32.076 29.5947C32.56 29.4454 33.0347 29.4034 33.5 29.4688L40.4 30.8687C40.8667 31.0021 41.25 31.2441 41.55 31.5947C41.85 31.9454 42 32.3368 42 32.7687V40.8688C42 41.4688 41.8 41.9688 41.4 42.3688C41 42.7688 40.5 42.9688 39.9 42.9688ZM12.05 18.9688L15.35 15.6687L14.5 10.9688H10.05C10.2167 12.3354 10.45 13.6854 10.75 15.0188C11.05 16.3521 11.4833 17.6687 12.05 18.9688ZM29.95 36.8688C31.25 37.4354 32.5753 37.8854 33.926 38.2188C35.2767 38.5521 36.6347 38.7688 38 38.8688V34.4688L33.3 33.5187L29.95 36.8688Z" fill="white"/>
</svg>
