<svg width="48" height="49" viewBox="0 0 48 49" fill="none" xmlns="http://www.w3.org/2000/svg">
<path d="M24 34.4688C26 34.4688 27.742 33.8187 29.226 32.5187C30.71 31.2188 31.6013 29.6021 31.9 27.6688C31.9667 27.3354 31.892 27.0521 31.676 26.8188C31.46 26.5854 31.168 26.4688 30.8 26.4688H17.2C16.8667 26.4688 16.5833 26.5854 16.35 26.8188C16.1167 27.0521 16.0333 27.3354 16.1 27.6688C16.4 29.6021 17.2913 31.2188 18.774 32.5187C20.2567 33.8187 21.9987 34.4688 24 34.4688ZM24 44.4688C21.5 44.4688 19.1587 43.9941 16.976 43.0448C14.7933 42.0954 12.8933 40.8121 11.276 39.1948C9.65867 37.5774 8.37533 35.6774 7.426 33.4948C6.47667 31.3121 6.00133 28.9701 6 26.4688V8.46875C6 7.36875 6.392 6.42742 7.176 5.64475C7.96 4.86208 8.90133 4.47008 10 4.46875H38C39.1 4.46875 40.042 4.86075 40.826 5.64475C41.61 6.42875 42.0013 7.37008 42 8.46875V26.4688C42 28.9688 41.5253 31.3108 40.576 33.4948C39.6267 35.6788 38.3433 37.5788 36.726 39.1948C35.1087 40.8108 33.2087 42.0941 31.026 43.0448C28.8433 43.9954 26.5013 44.4701 24 44.4688ZM24 40.4688C27.8667 40.4688 31.1667 39.1021 33.9 36.3688C36.6333 33.6354 38 30.3354 38 26.4688V8.46875H10V26.4688C10 30.3354 11.3667 33.6354 14.1 36.3688C16.8333 39.1021 20.1333 40.4688 24 40.4688ZM18 14.4688C17.1 14.4688 16.3087 14.7354 15.626 15.2688C14.9433 15.8021 14.468 16.4687 14.2 17.2687C14.1 17.5687 14.15 17.8441 14.35 18.0947C14.55 18.3454 14.8333 18.4701 15.2 18.4688H20.8C21.1333 18.4688 21.4 18.3441 21.6 18.0947C21.8 17.8454 21.8667 17.5701 21.8 17.2687C21.5333 16.4687 21.0587 15.8021 20.376 15.2688C19.6933 14.7354 18.9013 14.4688 18 14.4688ZM30 14.4688C29.1 14.4688 28.3087 14.7354 27.626 15.2688C26.9433 15.8021 26.468 16.4687 26.2 17.2687C26.1 17.5687 26.15 17.8441 26.35 18.0947C26.55 18.3454 26.8333 18.4701 27.2 18.4688H32.8C33.1333 18.4688 33.4 18.3441 33.6 18.0947C33.8 17.8454 33.8667 17.5701 33.8 17.2687C33.5333 16.4687 33.0587 15.8021 32.376 15.2688C31.6933 14.7354 30.9013 14.4688 30 14.4688Z" fill="#1C1C1C"/>
</svg>
