<svg width="48" height="49" viewBox="0 0 48 49" fill="none" xmlns="http://www.w3.org/2000/svg">
<path d="M13.3 17.2687C13.5 17.4687 13.7333 17.5688 14 17.5688C14.2667 17.5688 14.5 17.4687 14.7 17.2687L17.3 14.6687C17.5 14.4688 17.6 14.2354 17.6 13.9688C17.6 13.7021 17.5 13.4688 17.3 13.2688L14.7 10.6687C14.5 10.4688 14.2667 10.3687 14 10.3687C13.7333 10.3687 13.5 10.4688 13.3 10.6687L10.7 13.2688C10.5 13.4688 10.4 13.7021 10.4 13.9688C10.4 14.2354 10.5 14.4688 10.7 14.6687L13.3 17.2687ZM8 28.9688C6.9 28.9688 5.95867 28.5774 5.176 27.7948C4.39333 27.0121 4.00133 26.0701 4 24.9688V6.96875C4 5.86875 4.392 4.92742 5.176 4.14475C5.96 3.36208 6.90133 2.97008 8 2.96875H40C41.1 2.96875 42.042 3.36075 42.826 4.14475C43.61 4.92875 44.0013 5.87008 44 6.96875V24.9688C44 26.0688 43.6087 27.0107 42.826 27.7948C42.0433 28.5788 41.1013 28.9701 40 28.9688H35.95C35.3833 28.9688 34.9167 28.7768 34.55 28.3927C34.1833 28.0087 34 27.5341 34 26.9688C34 26.4034 34.192 25.9288 34.576 25.5448C34.96 25.1607 35.4347 24.9688 36 24.9688H40V6.96875H8V24.9688H12C12.5667 24.9688 13.042 25.1607 13.426 25.5448C13.81 25.9288 14.0013 26.4034 14 26.9688C13.9987 27.5341 13.8067 28.0094 13.424 28.3948C13.0413 28.7801 12.5667 28.9714 12 28.9688H8ZM33 14.9688C33.8333 14.9688 34.542 14.6774 35.126 14.0948C35.71 13.5121 36.0013 12.8034 36 11.9688C35.9987 11.1341 35.7073 10.4261 35.126 9.84475C34.5447 9.26342 33.836 8.97142 33 8.96875C32.164 8.96608 31.456 9.25808 30.876 9.84475C30.296 10.4314 30.004 11.1394 30 11.9688C29.996 12.7981 30.288 13.5068 30.876 14.0948C31.464 14.6828 32.172 14.9741 33 14.9688ZM12 46.9688C11.4333 46.9688 10.9587 46.7767 10.576 46.3927C10.1933 46.0088 10.0013 45.5341 10 44.9688V42.7687C10 41.6021 10.3253 40.5187 10.976 39.5187C11.6267 38.5187 12.4847 37.7687 13.55 37.2687C15.1833 36.5021 16.8833 35.9274 18.65 35.5448C20.4167 35.1621 22.2 34.9701 24 34.9688C25.8 34.9674 27.5833 35.1594 29.35 35.5448C31.1167 35.9301 32.8167 36.5047 34.45 37.2687C35.5167 37.7687 36.3753 38.5187 37.026 39.5187C37.6767 40.5187 38.0013 41.6021 38 42.7687V44.9688C38 45.5354 37.8087 46.0107 37.426 46.3947C37.0433 46.7787 36.568 46.9701 36 46.9688H12ZM14 42.9688H34V42.7687C34 42.3687 33.8833 42.0021 33.65 41.6688C33.4167 41.3354 33.1167 41.0854 32.75 40.9188C31.35 40.2854 29.9167 39.8021 28.45 39.4688C26.9833 39.1354 25.5 38.9688 24 38.9688C22.5 38.9688 21.0167 39.1354 19.55 39.4688C18.0833 39.8021 16.65 40.2854 15.25 40.9188C14.8833 41.0854 14.5833 41.3354 14.35 41.6688C14.1167 42.0021 14 42.3687 14 42.7687V42.9688ZM24 32.9688C22.0667 32.9688 20.4167 32.2854 19.05 30.9188C17.6833 29.5521 17 27.9021 17 25.9688C17 24.0354 17.6833 22.3854 19.05 21.0187C20.4167 19.6521 22.0667 18.9688 24 18.9688C25.9333 18.9688 27.5833 19.6521 28.95 21.0187C30.3167 22.3854 31 24.0354 31 25.9688C31 27.9021 30.3167 29.5521 28.95 30.9188C27.5833 32.2854 25.9333 32.9688 24 32.9688ZM24 28.9688C24.8333 28.9688 25.542 28.6774 26.126 28.0947C26.71 27.5121 27.0013 26.8034 27 25.9688C26.9987 25.1341 26.7073 24.4261 26.126 23.8447C25.5447 23.2634 24.836 22.9714 24 22.9688C23.164 22.9661 22.456 23.2581 21.876 23.8447C21.296 24.4314 21.004 25.1394 21 25.9688C20.996 26.7981 21.288 27.5068 21.876 28.0947C22.464 28.6827 23.172 28.9741 24 28.9688Z" fill="white"/>
</svg>
