<svg width="56" height="57" viewBox="0 0 56 57" fill="none" xmlns="http://www.w3.org/2000/svg">
<path d="M22.1349 28.4987L39.2849 11.3487C39.8683 10.7654 40.1506 10.0747 40.1319 9.2767C40.1133 8.4787 39.8115 7.78882 39.2266 7.20704C38.6417 6.62526 37.9511 6.33359 37.1546 6.33204C36.3582 6.33048 35.6683 6.62215 35.0849 7.20704L17.1766 25.1737C16.7099 25.6404 16.3599 26.1654 16.1266 26.7487C15.8933 27.332 15.7766 27.9154 15.7766 28.4987C15.7766 29.082 15.8933 29.6654 16.1266 30.2487C16.3599 30.832 16.7099 31.357 17.1766 31.8237L35.1433 49.7904C35.7266 50.3737 36.4072 50.656 37.1849 50.6374C37.9627 50.6187 38.6433 50.3169 39.2266 49.732C39.8099 49.1471 40.1016 48.4565 40.1016 47.66C40.1016 46.8636 39.8099 46.1737 39.2266 45.5904L22.1349 28.4987Z" fill="#757575"/>
</svg>
